<svg xmlns="http://www.w3.org/2000/svg" width="1800" height="1000" viewBox="0 0 1800 1000">
  <defs>
    <style>
      .wire { stroke: #111827; stroke-width: 3; fill: none; stroke-linecap: round; stroke-linejoin: round; }
      .thin { stroke: #111827; stroke-width: 2; fill: none; stroke-linecap: round; stroke-linejoin: round; }
      .symbol { stroke: #111827; stroke-width: 3; fill: none; stroke-linecap: round; stroke-linejoin: round; }
      .label { font-family: Arial, Helvetica, sans-serif; font-size: 22px; fill: #111827; }
      .small { font-family: Arial, Helvetica, sans-serif; font-size: 17px; fill: #374151; }
      .tiny { font-family: Arial, Helvetica, sans-serif; font-size: 14px; fill: #4b5563; }
      .title { font-family: Arial, Helvetica, sans-serif; font-size: 30px; font-weight: 700; fill: #111827; }
      .node { fill: #111827; }
      .block { fill: #f9fafb; stroke: #d1d5db; stroke-width: 2; rx: 8; }
    </style>
  </defs>

  <rect x="0" y="0" width="1800" height="1000" fill="#ffffff"/>
  <text x="60" y="58" class="title">BJT 3-Stage Bandpass Amplifier with Output Buffer/Filter</text>
  <text x="60" y="88" class="small">Netlist: bjt3_sweep_hfbuf_r10k_c150p_ac.spice | VDD=5 V, VCM=2.5 V, AC input=1 V</text>

  <!-- Supply rail -->
  <line x1="120" y1="130" x2="1580" y2="130" class="wire"/>
  <text x="70" y="137" class="label">VDD 5 V</text>

  <!-- Input source and coupling -->
  <circle cx="105" cy="520" r="34" class="symbol"/>
  <text x="72" y="583" class="small">VIN</text>
  <text x="58" y="605" class="tiny">DC 2.5 V</text>
  <text x="66" y="624" class="tiny">AC 1 V</text>
  <line x1="105" y1="486" x2="105" y2="440" class="wire"/>
  <line x1="105" y1="554" x2="105" y2="595" class="wire"/>
  <path d="M 90 595 L 120 595 M 96 607 L 114 607 M 102 619 L 108 619" class="symbol"/>
  <line x1="139" y1="520" x2="182" y2="520" class="wire"/>
  <line x1="182" y1="485" x2="182" y2="555" class="symbol"/>
  <line x1="202" y1="485" x2="202" y2="555" class="symbol"/>
  <line x1="202" y1="520" x2="280" y2="520" class="wire"/>
  <text x="165" y="466" class="small">CIN</text>
  <text x="162" y="579" class="tiny">68 nF</text>

  <!-- Stage 1 block -->
  <rect x="280" y="160" width="310" height="610" class="block"/>
  <text x="360" y="194" class="label">Stage 1 CE</text>
  <text x="338" y="218" class="tiny">sky130 npn_05v5</text>

  <!-- Stage 1 bias -->
  <line x1="340" y1="130" x2="340" y2="250" class="wire"/>
  <path d="M 340 250 l -15 10 l 30 20 l -30 20 l 30 20 l -30 20 l 15 10" class="symbol"/>
  <line x1="340" y1="350" x2="340" y2="520" class="wire"/>
  <path d="M 340 520 l -15 10 l 30 20 l -30 20 l 30 20 l -30 20 l 15 10" class="symbol"/>
  <line x1="340" y1="620" x2="340" y2="665" class="wire"/>
  <path d="M 320 665 L 360 665 M 327 677 L 353 677 M 335 689 L 345 689" class="symbol"/>
  <text x="293" y="288" class="tiny">RB1_TOP</text>
  <text x="301" y="312" class="tiny">3.3M</text>
  <text x="304" y="560" class="tiny">RB1_BOT</text>
  <text x="317" y="584" class="tiny">1M</text>
  <circle cx="340" cy="520" r="5" class="node"/>

  <!-- Stage 1 BJT and collector/emitter network -->
  <line x1="340" y1="520" x2="430" y2="520" class="wire"/>
  <line x1="430" y1="470" x2="430" y2="570" class="symbol"/>
  <line x1="430" y1="500" x2="505" y2="455" class="symbol"/>
  <line x1="430" y1="540" x2="505" y2="585" class="symbol"/>
  <polygon points="488,575 510,589 500,564" fill="#111827"/>
  <line x1="505" y1="455" x2="505" y2="365" class="wire"/>
  <line x1="505" y1="585" x2="505" y2="655" class="wire"/>
  <path d="M 505 130 L 505 225 l -15 10 l 30 20 l -30 20 l 30 20 l -30 20 l 15 10 L 505 365" class="symbol"/>
  <path d="M 505 655 l -15 10 l 30 20 l -30 20 l 30 20 l -30 20 l 15 10" class="symbol"/>
  <line x1="505" y1="755" x2="505" y2="790" class="wire"/>
  <path d="M 485 790 L 525 790 M 492 802 L 518 802 M 500 814 L 510 814" class="symbol"/>
  <line x1="505" y1="365" x2="505" y2="415" class="wire"/>
  <line x1="485" y1="415" x2="525" y2="415" class="symbol"/>
  <line x1="485" y1="435" x2="525" y2="435" class="symbol"/>
  <line x1="505" y1="435" x2="505" y2="470" class="wire"/>
  <line x1="505" y1="435" x2="535" y2="435" class="wire"/>
  <path d="M 535 435 L 535 460 M 517 460 L 553 460 M 523 472 L 547 472 M 530 484 L 540 484" class="symbol"/>
  <text x="470" y="250" class="tiny">RC1 120k</text>
  <text x="526" y="714" class="tiny">RE1 18.5k</text>
  <text x="526" y="425" class="tiny">CH1 30p</text>
  <text x="452" y="615" class="tiny">Q1</text>
  <circle cx="505" cy="365" r="5" class="node"/>

  <!-- Coupling C12 -->
  <line x1="505" y1="365" x2="620" y2="365" class="wire"/>
  <line x1="620" y1="330" x2="620" y2="400" class="symbol"/>
  <line x1="642" y1="330" x2="642" y2="400" class="symbol"/>
  <line x1="642" y1="365" x2="705" y2="365" class="wire"/>
  <text x="601" y="313" class="small">C12</text>
  <text x="604" y="420" class="tiny">68 nF</text>

  <!-- Stage 2 block -->
  <rect x="705" y="160" width="310" height="610" class="block"/>
  <text x="785" y="194" class="label">Stage 2 CE</text>
  <text x="763" y="218" class="tiny">sky130 npn_05v5</text>

  <!-- Stage 2 bias -->
  <line x1="765" y1="130" x2="765" y2="250" class="wire"/>
  <path d="M 765 250 l -15 10 l 30 20 l -30 20 l 30 20 l -30 20 l 15 10" class="symbol"/>
  <line x1="765" y1="350" x2="765" y2="365" class="wire"/>
  <line x1="705" y1="365" x2="765" y2="365" class="wire"/>
  <line x1="765" y1="365" x2="765" y2="520" class="wire"/>
  <path d="M 765 520 l -15 10 l 30 20 l -30 20 l 30 20 l -30 20 l 15 10" class="symbol"/>
  <line x1="765" y1="620" x2="765" y2="665" class="wire"/>
  <path d="M 745 665 L 785 665 M 752 677 L 778 677 M 760 689 L 770 689" class="symbol"/>
  <text x="718" y="288" class="tiny">RB2_TOP</text>
  <text x="726" y="312" class="tiny">3.3M</text>
  <text x="729" y="560" class="tiny">RB2_BOT</text>
  <text x="742" y="584" class="tiny">1M</text>
  <circle cx="765" cy="365" r="5" class="node"/>

  <!-- Stage 2 BJT and collector/emitter network -->
  <line x1="765" y1="520" x2="855" y2="520" class="wire"/>
  <line x1="855" y1="470" x2="855" y2="570" class="symbol"/>
  <line x1="855" y1="500" x2="930" y2="455" class="symbol"/>
  <line x1="855" y1="540" x2="930" y2="585" class="symbol"/>
  <polygon points="913,575 935,589 925,564" fill="#111827"/>
  <line x1="930" y1="455" x2="930" y2="365" class="wire"/>
  <line x1="930" y1="585" x2="930" y2="655" class="wire"/>
  <path d="M 930 130 L 930 225 l -15 10 l 30 20 l -30 20 l 30 20 l -30 20 l 15 10 L 930 365" class="symbol"/>
  <path d="M 930 655 l -15 10 l 30 20 l -30 20 l 30 20 l -30 20 l 15 10" class="symbol"/>
  <line x1="930" y1="755" x2="930" y2="790" class="wire"/>
  <path d="M 910 790 L 950 790 M 917 802 L 943 802 M 925 814 L 935 814" class="symbol"/>
  <line x1="930" y1="365" x2="930" y2="415" class="wire"/>
  <line x1="910" y1="415" x2="950" y2="415" class="symbol"/>
  <line x1="910" y1="435" x2="950" y2="435" class="symbol"/>
  <line x1="930" y1="435" x2="930" y2="470" class="wire"/>
  <line x1="930" y1="435" x2="960" y2="435" class="wire"/>
  <path d="M 960 435 L 960 460 M 942 460 L 978 460 M 948 472 L 972 472 M 955 484 L 965 484" class="symbol"/>
  <text x="895" y="250" class="tiny">RC2 120k</text>
  <text x="951" y="714" class="tiny">RE2 18.5k</text>
  <text x="951" y="425" class="tiny">CH2 30p</text>
  <text x="877" y="615" class="tiny">Q2</text>
  <circle cx="930" cy="365" r="5" class="node"/>

  <!-- Coupling C23 -->
  <line x1="930" y1="365" x2="1045" y2="365" class="wire"/>
  <line x1="1045" y1="330" x2="1045" y2="400" class="symbol"/>
  <line x1="1067" y1="330" x2="1067" y2="400" class="symbol"/>
  <line x1="1067" y1="365" x2="1130" y2="365" class="wire"/>
  <text x="1026" y="313" class="small">C23</text>
  <text x="1029" y="420" class="tiny">68 nF</text>

  <!-- Stage 3 block -->
  <rect x="1130" y="160" width="310" height="610" class="block"/>
  <text x="1210" y="194" class="label">Stage 3 CE</text>
  <text x="1188" y="218" class="tiny">sky130 npn_05v5</text>

  <!-- Stage 3 bias -->
  <line x1="1190" y1="130" x2="1190" y2="250" class="wire"/>
  <path d="M 1190 250 l -15 10 l 30 20 l -30 20 l 30 20 l -30 20 l 15 10" class="symbol"/>
  <line x1="1190" y1="350" x2="1190" y2="365" class="wire"/>
  <line x1="1130" y1="365" x2="1190" y2="365" class="wire"/>
  <line x1="1190" y1="365" x2="1190" y2="520" class="wire"/>
  <path d="M 1190 520 l -15 10 l 30 20 l -30 20 l 30 20 l -30 20 l 15 10" class="symbol"/>
  <line x1="1190" y1="620" x2="1190" y2="665" class="wire"/>
  <path d="M 1170 665 L 1210 665 M 1177 677 L 1203 677 M 1185 689 L 1195 689" class="symbol"/>
  <text x="1142" y="288" class="tiny">RB3_TOP</text>
  <text x="1151" y="312" class="tiny">3.3M</text>
  <text x="1154" y="560" class="tiny">RB3_BOT</text>
  <text x="1167" y="584" class="tiny">1M</text>
  <circle cx="1190" cy="365" r="5" class="node"/>

  <!-- Stage 3 BJT and collector/emitter network -->
  <line x1="1190" y1="520" x2="1280" y2="520" class="wire"/>
  <line x1="1280" y1="470" x2="1280" y2="570" class="symbol"/>
  <line x1="1280" y1="500" x2="1355" y2="455" class="symbol"/>
  <line x1="1280" y1="540" x2="1355" y2="585" class="symbol"/>
  <polygon points="1338,575 1360,589 1350,564" fill="#111827"/>
  <line x1="1355" y1="455" x2="1355" y2="365" class="wire"/>
  <line x1="1355" y1="585" x2="1355" y2="655" class="wire"/>
  <path d="M 1355 130 L 1355 225 l -15 10 l 30 20 l -30 20 l 30 20 l -30 20 l 15 10 L 1355 365" class="symbol"/>
  <path d="M 1355 655 l -15 10 l 30 20 l -30 20 l 30 20 l -30 20 l 15 10" class="symbol"/>
  <line x1="1355" y1="755" x2="1355" y2="790" class="wire"/>
  <path d="M 1335 790 L 1375 790 M 1342 802 L 1368 802 M 1350 814 L 1360 814" class="symbol"/>
  <line x1="1355" y1="365" x2="1355" y2="415" class="wire"/>
  <line x1="1335" y1="415" x2="1375" y2="415" class="symbol"/>
  <line x1="1335" y1="435" x2="1375" y2="435" class="symbol"/>
  <line x1="1355" y1="435" x2="1355" y2="470" class="wire"/>
  <line x1="1355" y1="435" x2="1385" y2="435" class="wire"/>
  <path d="M 1385 435 L 1385 460 M 1367 460 L 1403 460 M 1373 472 L 1397 472 M 1380 484 L 1390 484" class="symbol"/>
  <text x="1320" y="250" class="tiny">RC3 120k</text>
  <text x="1376" y="714" class="tiny">RE3 18.5k</text>
  <text x="1376" y="425" class="tiny">CH3 30p</text>
  <text x="1302" y="615" class="tiny">Q3</text>
  <circle cx="1355" cy="365" r="5" class="node"/>

  <!-- Output coupling and rebias -->
  <line x1="1355" y1="365" x2="1465" y2="365" class="wire"/>
  <line x1="1465" y1="330" x2="1465" y2="400" class="symbol"/>
  <line x1="1487" y1="330" x2="1487" y2="400" class="symbol"/>
  <line x1="1487" y1="365" x2="1555" y2="365" class="wire"/>
  <text x="1444" y="313" class="small">COUT</text>
  <text x="1450" y="420" class="tiny">10 nF</text>
  <circle cx="1555" cy="365" r="5" class="node"/>
  <text x="1524" y="347" class="tiny">vout_drv</text>

  <line x1="1555" y1="130" x2="1555" y2="220" class="wire"/>
  <path d="M 1555 220 l -15 10 l 30 20 l -30 20 l 30 20 l -30 20 l 15 10" class="symbol"/>
  <line x1="1555" y1="320" x2="1555" y2="365" class="wire"/>
  <line x1="1555" y1="365" x2="1555" y2="410" class="wire"/>
  <path d="M 1555 410 l -15 10 l 30 20 l -30 20 l 30 20 l -30 20 l 15 10" class="symbol"/>
  <line x1="1555" y1="510" x2="1555" y2="550" class="wire"/>
  <path d="M 1535 550 L 1575 550 M 1542 562 L 1568 562 M 1550 574 L 1560 574" class="symbol"/>
  <text x="1580" y="266" class="tiny">ROUT_TOP 10M</text>
  <text x="1580" y="456" class="tiny">ROUT_BOT 10M</text>

  <!-- Buffer and filter section -->
  <rect x="1480" y="620" width="265" height="260" class="block"/>
  <text x="1518" y="654" class="label">Buffer + 2-Pole LPF</text>

  <line x1="1555" y1="365" x2="1610" y2="365" class="wire"/>
  <line x1="1610" y1="365" x2="1610" y2="690" class="wire"/>
  <polygon points="1545,690 1545,770 1615,730" class="symbol"/>
  <line x1="1615" y1="730" x2="1660" y2="730" class="wire"/>
  <text x="1534" y="804" class="tiny">EBUF ideal follower</text>
  <line x1="1598" y1="690" x2="1598" y2="655" class="wire"/>
  <text x="1628" y="676" class="tiny">IOPAMP={2Meg*7e-12}</text>

  <!-- Filter routed along lower edge to keep the schematic inside the page -->
  <line x1="1660" y1="730" x2="1660" y2="890" class="wire"/>
  <text x="1668" y="815" class="tiny">vbuf</text>
  <line x1="1660" y1="890" x2="1210" y2="890" class="wire"/>
  <path d="M 1210 890 h 25 l 10 -15 l 20 30 l 20 -30 l 20 30 l 20 -30 l 10 15 h 20" class="symbol"/>
  <text x="1242" y="863" class="tiny">RBUF1 10k</text>
  <line x1="1355" y1="890" x2="1445" y2="890" class="wire"/>
  <circle cx="1445" cy="890" r="5" class="node"/>
  <text x="1408" y="873" class="tiny">vfilt1</text>
  <line x1="1445" y1="890" x2="1445" y2="928" class="wire"/>
  <line x1="1425" y1="928" x2="1465" y2="928" class="symbol"/>
  <line x1="1425" y1="948" x2="1465" y2="948" class="symbol"/>
  <line x1="1445" y1="948" x2="1445" y2="970" class="wire"/>
  <path d="M 1425 970 L 1465 970 M 1432 982 L 1458 982 M 1440 994 L 1450 994" class="symbol"/>
  <text x="1468" y="941" class="tiny">CBUF1 150p</text>

  <!-- RBUF2 and output load -->
  <path d="M 1445 890 h 25 l 10 -15 l 20 30 l 20 -30 l 20 30 l 20 -30 l 10 15 h 20" class="symbol"/>
  <text x="1483" y="863" class="tiny">RBUF2 10k</text>
  <line x1="1590" y1="890" x2="1680" y2="890" class="wire"/>
  <circle cx="1680" cy="890" r="5" class="node"/>
  <text x="1628" y="873" class="tiny">vout_final</text>
  <text x="1688" y="897" class="label">OUT</text>
  <line x1="1680" y1="890" x2="1680" y2="928" class="wire"/>
  <line x1="1660" y1="928" x2="1700" y2="928" class="symbol"/>
  <line x1="1660" y1="948" x2="1700" y2="948" class="symbol"/>
  <line x1="1680" y1="948" x2="1680" y2="970" class="wire"/>
  <path d="M 1660 970 L 1700 970 M 1667 982 L 1693 982 M 1675 994 L 1685 994" class="symbol"/>
  <text x="1570" y="941" class="tiny">CBUF2 150p</text>

  <line x1="1725" y1="890" x2="1725" y2="928" class="wire"/>
  <line x1="1705" y1="928" x2="1745" y2="928" class="symbol"/>
  <line x1="1705" y1="948" x2="1745" y2="948" class="symbol"/>
  <line x1="1725" y1="948" x2="1725" y2="970" class="wire"/>
  <path d="M 1705 970 L 1745 970 M 1712 982 L 1738 982 M 1720 994 L 1730 994" class="symbol"/>
  <text x="1700" y="918" class="tiny">CLOAD 10p</text>

  <!-- Legend -->
  <rect x="60" y="780" width="560" height="150" fill="#ffffff" stroke="#d1d5db" stroke-width="2" rx="8"/>
  <text x="82" y="812" class="label">Notes</text>
  <text x="82" y="844" class="small">Each CE stage: RC=120k, RE=18.5k, RB_TOP=3.3M, RB_BOT=1M.</text>
  <text x="82" y="872" class="small">Coupling capacitors: CIN=C12=C23=68 nF. Shunt caps: CH1=CH2=CH3=30 pF.</text>
  <text x="82" y="900" class="small">Output rebias: COUT=10 nF, ROUT_TOP=ROUT_BOT=10M. Load: 10 pF.</text>
</svg>
