<svg xmlns="http://www.w3.org/2000/svg" width="2400" height="1480" viewBox="0 0 2400 1480" role="img" aria-labelledby="title desc">
  <title id="title">Detailed accepted 2BJT PPA schematic with all netlist values</title>
  <desc id="desc">Detailed schematic of bjt2_sweep_ppa_rc120k_re3p9k_rb4p7m_c68n_cout10n_ch22p_r10k_c220p_ft250k, including component values, node names, OPAMP model values, performance metrics, and PPA area items.</desc>
  <defs>
    <style>
      .bg { fill: #fbfcfb; }
      .panel { fill: #ffffff; stroke: #c9d2ce; stroke-width: 2; rx: 8; }
      .rail { stroke: #141b19; stroke-width: 4; fill: none; stroke-linecap: round; }
      .wire { stroke: #1e2725; stroke-width: 3; fill: none; stroke-linecap: round; stroke-linejoin: round; }
      .thin { stroke: #1e2725; stroke-width: 2; fill: none; stroke-linecap: round; stroke-linejoin: round; }
      .device { stroke: #111817; stroke-width: 3; fill: none; stroke-linecap: round; stroke-linejoin: round; }
      .cap { stroke: #1f6f9f; stroke-width: 4; fill: none; stroke-linecap: round; }
      .node { fill: #111817; }
      .nodeLabel { font-family: Arial, Helvetica, sans-serif; font-size: 15px; fill: #52615c; }
      .title { font-family: Arial, Helvetica, sans-serif; font-size: 34px; font-weight: 700; fill: #111817; }
      .subtitle { font-family: Arial, Helvetica, sans-serif; font-size: 17px; fill: #4d5a56; }
      .section { font-family: Arial, Helvetica, sans-serif; font-size: 22px; font-weight: 700; fill: #111817; }
      .label { font-family: Arial, Helvetica, sans-serif; font-size: 18px; font-weight: 700; fill: #111817; }
      .value { font-family: Arial, Helvetica, sans-serif; font-size: 15px; fill: #303b38; }
      .small { font-family: Arial, Helvetica, sans-serif; font-size: 14px; fill: #46524e; }
      .tiny { font-family: Arial, Helvetica, sans-serif; font-size: 12px; fill: #5d6a66; }
      .metric { font-family: Arial, Helvetica, sans-serif; font-size: 15px; fill: #1f2926; }
      .metricHead { font-family: Arial, Helvetica, sans-serif; font-size: 16px; font-weight: 700; fill: #111817; }
      .chip { fill: #eef5f3; stroke: #b7c7c1; stroke-width: 1.4; rx: 6; }
      .stage1 { fill: #edf7f5; stroke: #5fa193; stroke-width: 2; rx: 8; }
      .stage2 { fill: #fff4e9; stroke: #c68a4a; stroke-width: 2; rx: 8; }
      .out { fill: #f3f1fb; stroke: #7a6ab1; stroke-width: 2; rx: 8; }
      .tableHead { fill: #e8eeeb; }
      .tableLine { stroke: #d2dad6; stroke-width: 1; }
      .arrow { marker-end: url(#arrow); }
    </style>
    <marker id="arrow" markerWidth="11" markerHeight="8" refX="10" refY="4" orient="auto">
      <polygon points="0 0, 11 4, 0 8" fill="#1e2725"/>
    </marker>
  </defs>

  <rect x="0" y="0" width="2400" height="1480" class="bg"/>

  <text x="60" y="58" class="title">Detailed Accepted 2BJT PPA Schematic</text>
  <text x="60" y="88" class="subtitle">bjt2_sweep_ppa_rc120k_re3p9k_rb4p7m_c68n_cout10n_ch22p_r10k_c220p_ft250k</text>
  <text x="60" y="113" class="subtitle">All values shown are from the active netlist and current summary tables.</text>

  <line x1="80" y1="160" x2="1780" y2="160" class="rail"/>
  <text x="1800" y="166" class="label">vdd = 5 V</text>
  <line x1="80" y1="780" x2="1780" y2="780" class="rail"/>
  <text x="1800" y="786" class="label">0 / GND</text>

  <rect x="70" y="135" width="560" height="675" class="stage1"/>
  <rect x="650" y="135" width="560" height="675" class="stage2"/>
  <rect x="1230" y="135" width="610" height="675" class="out"/>

  <text x="95" y="202" class="section">Stage 1: CE gain</text>
  <text x="675" y="202" class="section">Stage 2: CE gain</text>
  <text x="1255" y="202" class="section">Output rebias, buffer, LPF, load</text>

  <!-- Input source -->
  <circle cx="125" cy="505" r="42" class="device"/>
  <line x1="105" y1="505" x2="145" y2="505" class="thin"/>
  <line x1="125" y1="485" x2="125" y2="525" class="thin"/>
  <line x1="125" y1="547" x2="125" y2="780" class="wire"/>
  <text x="92" y="455" class="label">VIN</text>
  <text x="75" y="580" class="value">DC = VCM = 2.5 V</text>
  <text x="75" y="602" class="value">AC = 1 V</text>
  <line x1="125" y1="463" x2="125" y2="335" class="wire"/>
  <line x1="125" y1="335" x2="212" y2="335" class="wire arrow"/>

  <!-- CIN -->
  <line x1="220" y1="292" x2="220" y2="378" class="cap"/>
  <line x1="250" y1="292" x2="250" y2="378" class="cap"/>
  <line x1="250" y1="335" x2="325" y2="335" class="wire arrow"/>
  <text x="203" y="270" class="label">CIN</text>
  <text x="196" y="405" class="value">68 nF</text>
  <text x="186" y="425" class="tiny">vin -> b1_base</text>

  <!-- Stage 1 bias divider -->
  <line x1="325" y1="160" x2="325" y2="218" class="wire"/>
  <polyline points="325,218 305,232 345,258 305,284 345,310 305,336 325,362" class="device"/>
  <line x1="325" y1="362" x2="325" y2="440" class="wire"/>
  <polyline points="325,440 305,454 345,480 305,506 345,532 305,558 325,584" class="device"/>
  <line x1="325" y1="584" x2="325" y2="780" class="wire"/>
  <circle cx="325" cy="335" r="6" class="node"/>
  <text x="355" y="258" class="label">RB1_TOP</text>
  <text x="355" y="281" class="value">4.7 Mohm</text>
  <text x="355" y="492" class="label">RB1_BOT</text>
  <text x="355" y="515" class="value">1 Mohm</text>
  <text x="352" y="338" class="nodeLabel">b1_base</text>

  <!-- Stage 1 collector resistor and transistor -->
  <line x1="515" y1="160" x2="515" y2="218" class="wire"/>
  <polyline points="515,218 495,232 535,258 495,284 535,310 495,336 515,362" class="device"/>
  <line x1="515" y1="362" x2="515" y2="430" class="wire"/>
  <text x="540" y="260" class="label">RC1</text>
  <text x="540" y="283" class="value">120 kohm</text>
  <circle cx="515" cy="430" r="6" class="node"/>
  <text x="535" y="435" class="nodeLabel">b1_collector</text>

  <line x1="325" y1="335" x2="425" y2="470" class="wire"/>
  <line x1="425" y1="470" x2="515" y2="430" class="wire"/>
  <line x1="425" y1="470" x2="425" y2="595" class="wire"/>
  <circle cx="425" cy="470" r="30" class="device"/>
  <line x1="398" y1="486" x2="452" y2="454" class="device"/>
  <line x1="425" y1="595" x2="425" y2="628" class="wire"/>
  <polyline points="425,628 405,642 445,668 405,694 445,720 405,746 425,772" class="device"/>
  <line x1="425" y1="772" x2="425" y2="780" class="wire"/>
  <text x="458" y="470" class="label">Q1</text>
  <text x="458" y="493" class="value">npn_05v5</text>
  <text x="458" y="514" class="value">W1p00L1p00, mult=1</text>
  <text x="455" y="677" class="label">RE1</text>
  <text x="455" y="700" class="value">3.9 kohm</text>
  <text x="452" y="600" class="nodeLabel">b1_emitter</text>

  <!-- CH1 -->
  <line x1="555" y1="430" x2="600" y2="430" class="wire"/>
  <line x1="600" y1="390" x2="600" y2="470" class="cap"/>
  <line x1="628" y1="390" x2="628" y2="470" class="cap"/>
  <line x1="628" y1="430" x2="628" y2="780" class="wire"/>
  <text x="575" y="374" class="label">CH1</text>
  <text x="574" y="495" class="value">22 pF</text>

  <!-- C12 -->
  <line x1="515" y1="430" x2="665" y2="430" class="wire arrow"/>
  <line x1="680" y1="388" x2="680" y2="472" class="cap"/>
  <line x1="710" y1="388" x2="710" y2="472" class="cap"/>
  <line x1="710" y1="430" x2="760" y2="430" class="wire arrow"/>
  <text x="672" y="365" class="label">C12</text>
  <text x="664" y="497" class="value">68 nF</text>
  <text x="650" y="517" class="tiny">b1_collector -> b2_base</text>

  <!-- Stage 2 bias divider -->
  <line x1="760" y1="160" x2="760" y2="218" class="wire"/>
  <polyline points="760,218 740,232 780,258 740,284 780,310 740,336 760,362" class="device"/>
  <line x1="760" y1="362" x2="760" y2="440" class="wire"/>
  <polyline points="760,440 740,454 780,480 740,506 780,532 740,558 760,584" class="device"/>
  <line x1="760" y1="584" x2="760" y2="780" class="wire"/>
  <circle cx="760" cy="430" r="6" class="node"/>
  <text x="790" y="258" class="label">RB2_TOP</text>
  <text x="790" y="281" class="value">4.7 Mohm</text>
  <text x="790" y="492" class="label">RB2_BOT</text>
  <text x="790" y="515" class="value">1 Mohm</text>
  <text x="786" y="435" class="nodeLabel">b2_base</text>

  <!-- Stage 2 collector resistor and transistor -->
  <line x1="1075" y1="160" x2="1075" y2="218" class="wire"/>
  <polyline points="1075,218 1055,232 1095,258 1055,284 1095,310 1055,336 1075,362" class="device"/>
  <line x1="1075" y1="362" x2="1075" y2="430" class="wire"/>
  <text x="1100" y="260" class="label">RC2</text>
  <text x="1100" y="283" class="value">120 kohm</text>
  <circle cx="1075" cy="430" r="6" class="node"/>
  <text x="1095" y="435" class="nodeLabel">b2_collector</text>

  <line x1="760" y1="430" x2="965" y2="470" class="wire"/>
  <line x1="965" y1="470" x2="1075" y2="430" class="wire"/>
  <line x1="965" y1="470" x2="965" y2="595" class="wire"/>
  <circle cx="965" cy="470" r="30" class="device"/>
  <line x1="938" y1="486" x2="992" y2="454" class="device"/>
  <line x1="965" y1="595" x2="965" y2="628" class="wire"/>
  <polyline points="965,628 945,642 985,668 945,694 985,720 945,746 965,772" class="device"/>
  <line x1="965" y1="772" x2="965" y2="780" class="wire"/>
  <text x="998" y="470" class="label">Q2</text>
  <text x="998" y="493" class="value">npn_05v5</text>
  <text x="998" y="514" class="value">W1p00L1p00, mult=1</text>
  <text x="995" y="677" class="label">RE2</text>
  <text x="995" y="700" class="value">3.9 kohm</text>
  <text x="992" y="600" class="nodeLabel">b2_emitter</text>

  <!-- CH2 -->
  <line x1="1115" y1="430" x2="1160" y2="430" class="wire"/>
  <line x1="1160" y1="390" x2="1160" y2="470" class="cap"/>
  <line x1="1188" y1="390" x2="1188" y2="470" class="cap"/>
  <line x1="1188" y1="430" x2="1188" y2="780" class="wire"/>
  <text x="1135" y="374" class="label">CH2</text>
  <text x="1134" y="495" class="value">22 pF</text>

  <!-- COUT and rebias -->
  <line x1="1075" y1="430" x2="1270" y2="430" class="wire arrow"/>
  <line x1="1285" y1="388" x2="1285" y2="472" class="cap"/>
  <line x1="1315" y1="388" x2="1315" y2="472" class="cap"/>
  <line x1="1315" y1="430" x2="1390" y2="430" class="wire arrow"/>
  <text x="1270" y="365" class="label">COUT</text>
  <text x="1264" y="497" class="value">10 nF</text>
  <text x="1250" y="517" class="tiny">b2_collector -> vout_drv</text>
  <circle cx="1390" cy="430" r="6" class="node"/>
  <text x="1406" y="435" class="nodeLabel">vout_drv</text>

  <line x1="1390" y1="160" x2="1390" y2="228" class="wire"/>
  <polyline points="1390,228 1370,242 1410,268 1370,294 1410,320 1370,346 1390,372" class="device"/>
  <line x1="1390" y1="372" x2="1390" y2="430" class="wire"/>
  <line x1="1390" y1="430" x2="1390" y2="495" class="wire"/>
  <polyline points="1390,495 1370,509 1410,535 1370,561 1410,587 1370,613 1390,639" class="device"/>
  <line x1="1390" y1="639" x2="1390" y2="780" class="wire"/>
  <text x="1420" y="287" class="label">ROUT_TOP</text>
  <text x="1420" y="310" class="value">10 Mohm</text>
  <text x="1420" y="556" class="label">ROUT_BOT</text>
  <text x="1420" y="579" class="value">10 Mohm</text>

  <!-- OPAMP follower -->
  <line x1="1390" y1="430" x2="1515" y2="430" class="wire arrow"/>
  <polygon points="1515,370 1515,490 1615,430" class="device"/>
  <text x="1530" y="425" class="label">EBUF</text>
  <text x="1525" y="453" class="value">unity VCVS</text>
  <line x1="1615" y1="430" x2="1660" y2="430" class="wire"/>
  <circle cx="1660" cy="430" r="6" class="node"/>
  <text x="1582" y="355" class="nodeLabel">vop_ideal</text>

  <polyline points="1660,430 1675,410 1705,450 1735,410 1765,450 1795,410 1810,430" class="device"/>
  <line x1="1810" y1="430" x2="1860" y2="430" class="wire"/>
  <circle cx="1860" cy="430" r="6" class="node"/>
  <text x="1685" y="390" class="label">ROPAMP</text>
  <text x="1685" y="410" class="value">1 kohm</text>
  <text x="1875" y="435" class="nodeLabel">vbuf</text>
  <line x1="1860" y1="430" x2="1860" y2="535" class="wire"/>
  <line x1="1820" y1="535" x2="1900" y2="535" class="cap"/>
  <line x1="1820" y1="563" x2="1900" y2="563" class="cap"/>
  <line x1="1860" y1="563" x2="1860" y2="780" class="wire"/>
  <text x="1885" y="545" class="label">COPAMP</text>
  <text x="1885" y="568" class="value">636.62 pF</text>
  <text x="1885" y="589" class="tiny">1/(2*pi*1k*250k)</text>

  <circle cx="1500" cy="660" r="33" class="device"/>
  <line x1="1500" y1="627" x2="1500" y2="570" class="wire"/>
  <line x1="1500" y1="693" x2="1500" y2="780" class="wire"/>
  <text x="1538" y="654" class="label">IOPAMP</text>
  <text x="1538" y="677" class="value">1.75 uA</text>
  <text x="1538" y="698" class="tiny">OPAMP_FT * 7e-12</text>
  <text x="1538" y="719" class="tiny">OPAMP_FT = 250 kHz</text>

  <!-- LPF and load -->
  <line x1="1860" y1="430" x2="1930" y2="430" class="wire arrow"/>
  <polyline points="1930,430 1945,410 1975,450 2005,410 2035,450 2065,410 2080,430" class="device"/>
  <line x1="2080" y1="430" x2="2140" y2="430" class="wire"/>
  <circle cx="2140" cy="430" r="6" class="node"/>
  <text x="1948" y="390" class="label">RBUF1</text>
  <text x="1948" y="410" class="value">10 kohm</text>
  <text x="2155" y="435" class="nodeLabel">vfilt1</text>
  <line x1="2140" y1="430" x2="2140" y2="535" class="wire"/>
  <line x1="2100" y1="535" x2="2180" y2="535" class="cap"/>
  <line x1="2100" y1="563" x2="2180" y2="563" class="cap"/>
  <line x1="2140" y1="563" x2="2140" y2="780" class="wire"/>
  <text x="2165" y="545" class="label">CBUF1</text>
  <text x="2165" y="568" class="value">220 pF</text>

  <line x1="2140" y1="430" x2="2200" y2="430" class="wire arrow"/>
  <polyline points="2200,430 2215,410 2245,450 2275,410 2305,450 2335,410 2350,430" class="device"/>
  <line x1="2350" y1="430" x2="2370" y2="430" class="wire"/>
  <circle cx="2370" cy="430" r="6" class="node"/>
  <text x="2218" y="390" class="label">RBUF2</text>
  <text x="2218" y="410" class="value">10 kohm</text>
  <text x="2268" y="470" class="nodeLabel">vout_final</text>
  <line x1="2370" y1="430" x2="2370" y2="535" class="wire"/>
  <line x1="2330" y1="535" x2="2390" y2="535" class="cap"/>
  <line x1="2330" y1="563" x2="2390" y2="563" class="cap"/>
  <line x1="2370" y1="563" x2="2370" y2="780" class="wire"/>
  <text x="2230" y="545" class="label">CBUF2</text>
  <text x="2230" y="568" class="value">220 pF</text>
  <text x="2230" y="600" class="label">CLOAD_10P</text>
  <text x="2230" y="623" class="value">10 pF external load</text>
  <text x="2230" y="644" class="tiny">excluded from amplifier PPA area</text>

  <!-- Detail tables -->
  <rect x="60" y="860" width="1110" height="540" class="panel"/>
  <text x="85" y="900" class="section">Netlist parameter summary</text>
  <rect x="85" y="925" width="1055" height="34" class="tableHead"/>
  <text x="105" y="948" class="metricHead">Parameter</text>
  <text x="330" y="948" class="metricHead">Value</text>
  <text x="560" y="948" class="metricHead">Used by</text>
  <text x="880" y="948" class="metricHead">Notes</text>

  <g class="metric">
    <line x1="85" y1="959" x2="1140" y2="959" class="tableLine"/>
    <text x="105" y="985">VDD</text><text x="330" y="985">5 V</text><text x="560" y="985">supply rail</text><text x="880" y="985">single-supply operation</text>
    <text x="105" y="1015">VCM</text><text x="330" y="1015">2.5 V</text><text x="560" y="1015">VIN DC bias</text><text x="880" y="1015">input common-mode</text>
    <text x="105" y="1045">RB_TOP</text><text x="330" y="1045">4.7 Mohm</text><text x="560" y="1045">RB1_TOP, RB2_TOP</text><text x="880" y="1045">base bias upper legs</text>
    <text x="105" y="1075">RB_BOT</text><text x="330" y="1075">1 Mohm</text><text x="560" y="1075">RB1_BOT, RB2_BOT</text><text x="880" y="1075">base bias lower legs</text>
    <text x="105" y="1105">RCVAL</text><text x="330" y="1105">120 kohm</text><text x="560" y="1105">RC1, RC2</text><text x="880" y="1105">collector loads</text>
    <text x="105" y="1135">REVAL</text><text x="330" y="1135">3.9 kohm</text><text x="560" y="1135">RE1, RE2</text><text x="880" y="1135">emitter degeneration/headroom</text>
    <text x="105" y="1165">CCPL</text><text x="330" y="1165">68 nF</text><text x="560" y="1165">CIN, C12</text><text x="880" y="1165">dominant low-frequency area</text>
    <text x="105" y="1195">COUT</text><text x="330" y="1195">10 nF</text><text x="560" y="1195">COUT</text><text x="880" y="1195">output coupling before rebias</text>
    <text x="105" y="1225">CH</text><text x="330" y="1225">22 pF</text><text x="560" y="1225">CH1, CH2</text><text x="880" y="1225">collector high-frequency poles</text>
    <text x="105" y="1255">ROUT</text><text x="330" y="1255">10 Mohm</text><text x="560" y="1255">ROUT_TOP, ROUT_BOT</text><text x="880" y="1255">vout_drv rebias to 2.5 V</text>
    <text x="105" y="1285">RBUF</text><text x="330" y="1285">10 kohm</text><text x="560" y="1285">RBUF1, RBUF2</text><text x="880" y="1285">two low-pass filter resistors</text>
    <text x="105" y="1315">CBUF</text><text x="330" y="1315">220 pF</text><text x="560" y="1315">CBUF1, CBUF2</text><text x="880" y="1315">two low-pass filter capacitors</text>
    <text x="105" y="1345">OPAMP_FT</text><text x="330" y="1345">250 kHz</text><text x="560" y="1345">COPAMP, IOPAMP</text><text x="880" y="1345">buffer bandwidth/current model</text>
    <text x="105" y="1375">ROPAMP / COPAMP</text><text x="330" y="1375">1 kohm / 636.62 pF</text><text x="560" y="1375">internal OPAMP pole</text><text x="880" y="1375">1/(2*pi*ROPAMP*OPAMP_FT)</text>
  </g>

  <rect x="1210" y="860" width="1130" height="540" class="panel"/>
  <text x="1235" y="900" class="section">Current selected metrics and PPA area contributors</text>
  <rect x="1235" y="925" width="525" height="430" class="chip"/>
  <text x="1260" y="958" class="metricHead">Selected candidate metrics</text>
  <g class="metric">
    <text x="1260" y="990">midband gain</text><text x="1500" y="990">39.760102 dB</text>
    <text x="1260" y="1020">lower cutoff</text><text x="1500" y="1020">12.569950 Hz</text>
    <text x="1260" y="1050">upper cutoff</text><text x="1500" y="1050">20409.380253 Hz</text>
    <text x="1260" y="1080">far HF slope</text><text x="1500" y="1080">-80.5594 dB/dec</text>
    <text x="1260" y="1110">AC nRMSE</text><text x="1500" y="1110">0.136319434501</text>
    <text x="1260" y="1140">tran nRMSE</text><text x="1500" y="1140">0.023733677809</text>
    <text x="1260" y="1170">power</text><text x="1500" y="1170">65.172 uW</text>
    <text x="1260" y="1200">area</text><text x="1500" y="1200">1.820824e8 p</text>
    <text x="1260" y="1230">output common-mode</text><text x="1500" y="1230">2.4983 V</text>
    <text x="1260" y="1260">transient output</text><text x="1500" y="1260">194.14 mVpp</text>
    <text x="1260" y="1290">10 Hz issue</text><text x="1500" y="1290">about -4.39 dB vs midband</text>
    <text x="1260" y="1320">LF slope issue</text><text x="1500" y="1320">about +41 dB/dec, 1-10 Hz</text>
  </g>

  <rect x="1790" y="925" width="520" height="430" class="chip"/>
  <text x="1815" y="958" class="metricHead">PPA area entries from bjt2_area_calculation.csv</text>
  <g class="metric">
    <text x="1815" y="990">Q1-Q2</text><text x="2035" y="990">2 p</text>
    <text x="1815" y="1018">RC1-RC2</text><text x="2035" y="1018">24343.254 p</text>
    <text x="1815" y="1046">RE1-RE2</text><text x="2035" y="1046">777.792 p</text>
    <text x="1815" y="1074">RB top pair</text><text x="2035" y="1074">953971.310 p</text>
    <text x="1815" y="1102">RB bottom pair</text><text x="2035" y="1102">202961.745 p</text>
    <text x="1815" y="1130">ROUT pair</text><text x="2035" y="1130">2.02974177e6 p</text>
    <text x="1815" y="1158">CIN, C12</text><text x="2035" y="1158">1.66065886e8 p</text>
    <text x="1815" y="1186">COUT</text><text x="2035" y="1186">1.22107269e7 p</text>
    <text x="1815" y="1214">CH1-CH2</text><text x="2035" y="1214">53727.198 p</text>
    <text x="1815" y="1242">EBUF / IOPAMP</text><text x="2035" y="1242">1000 p</text>
    <text x="1815" y="1270">RBUF1-RBUF2</text><text x="2035" y="1270">2015.943 p</text>
    <text x="1815" y="1298">CBUF1-CBUF2</text><text x="2035" y="1298">537271.985 p</text>
    <text x="1815" y="1326">CLOAD_10P</text><text x="2035" y="1326">12210.727 p, excluded</text>
  </g>
</svg>
